<svg width="37" height="38" viewBox="0 0 37 38" fill="none" xmlns="http://www.w3.org/2000/svg">
<path fill-rule="evenodd" clip-rule="evenodd" d="M5.47586 8.37821L18.177 0.969238L30.8781 8.37822V25.313L18.177 32.722L5.47586 25.313V8.37821ZM13.3009 7.52241L16.7066 10.9281V15.4473H12.4757L8.92582 11.8975L13.3009 7.52241ZM13.2289 26.1688L16.7066 22.6911V18.316H12.3315L8.85377 21.7937L13.2289 26.1688ZM19.6474 10.9281L23.053 7.52241L27.4281 11.8975L23.8783 15.4473H19.6474V10.9281ZM23.1251 26.1688L19.6474 22.6911V18.316H24.0225L27.5002 21.7937L23.1251 26.1688Z" fill="white"/>
<path d="M4.78725 12.6762V25.7721L18.177 33.5827L31.5667 25.7721V12.6762L36.2339 14.4856V30.4856L18.177 37.4856L0.120014 30.4856V14.4856L4.78725 12.6762Z" fill="white"/>
</svg>
